<svg width="200" height="58" viewBox="0 0 200 58" fill="none" xmlns="http://www.w3.org/2000/svg">
<path d="M42.485 10.3819C42.2846 10.3819 38.0762 9.97471 38.0762 9.97471C38.0762 9.97471 35.0702 6.92225 34.6694 6.71875C34.469 6.51526 34.469 6.51548 34.2686 6.51548L31.8638 56.5756L49.0983 52.7092C49.0983 52.7092 43.0862 11.1957 43.0862 10.7887C43.0862 10.5852 42.6854 10.3819 42.485 10.3819Z" fill="#3D3852"/>
<path d="M69.3387 32.1558C67.5351 31.1383 66.7335 30.3243 66.7335 29.3068C66.7335 27.8823 67.9359 27.0683 69.9399 27.0683C72.1443 27.0683 74.1484 28.0858 74.1484 28.0858L75.7516 23.2019C75.7516 23.2019 74.3488 21.9809 70.1403 21.9809C64.1283 21.9809 60.1203 25.4404 60.1203 30.3243C60.1203 33.1733 62.1243 35.2082 64.5291 36.6327C66.5331 37.8537 67.3347 38.6677 67.3347 39.8887C67.3347 41.1097 66.3327 42.3307 64.3287 42.3307C61.5231 42.3307 58.7175 40.9062 58.7175 40.9062L57.1143 45.7901C57.1143 45.7901 59.5191 47.4181 63.7275 47.4181C69.7395 47.4181 74.1484 44.3656 74.1484 38.8712C74.1484 35.8187 71.9439 33.5803 69.3387 32.1558ZM93.5873 21.7774C90.5812 21.7774 88.1764 23.2019 86.3728 25.4404L88.978 11.6025H82.1644L75.5512 46.8076H82.3648L84.5692 34.8012C85.3708 30.3243 87.7756 27.4753 89.98 27.4753C91.5833 27.4753 92.1845 28.4928 92.1845 30.1208C92.1845 31.1383 92.1845 32.1558 91.9841 33.1733L89.3788 47.0111H96.1925L98.7977 32.7663C98.9981 31.3418 99.1985 29.5103 99.1985 28.2893C99.1985 24.2194 97.1945 21.7774 93.5873 21.7774ZM111.022 41.9237C108.617 41.9237 107.816 39.8887 107.816 37.4467C107.816 33.5803 109.82 27.0683 113.427 27.0683C115.832 27.0683 116.633 29.1033 116.633 31.1383C116.633 35.6152 114.629 41.9237 111.022 41.9237ZM114.429 21.7774C106.213 21.7774 100.802 29.3068 100.802 37.6502C100.802 42.9411 104.008 47.2146 110.221 47.2146C118.237 47.2146 123.647 39.8887 123.647 31.3418C123.647 26.4578 120.842 21.7774 114.429 21.7774ZM134.469 42.1272C132.665 42.1272 131.663 41.1097 131.663 41.1097L132.866 34.5977C133.667 30.3243 135.872 27.4753 138.277 27.4753C140.281 27.4753 141.082 29.5103 141.082 31.3418C140.882 35.8187 138.277 42.1272 134.469 42.1272ZM141.082 21.7774C136.473 21.7774 133.868 25.8474 133.868 25.8474L134.269 22.1844H128.257C128.056 24.6264 127.455 28.4928 126.854 31.3418L122.044 56.5755H128.858L130.661 46.4006H130.862C130.862 46.4006 132.265 47.2146 134.87 47.2146C142.886 47.2146 148.096 38.8712 148.096 30.5278C148.096 26.0509 146.092 21.7774 141.082 21.7774ZM157.716 12.0095C155.511 12.0095 153.908 13.841 153.908 16.0795C153.908 18.1145 155.11 19.5389 157.114 19.5389C159.319 19.5389 161.122 18.1145 161.122 15.469C161.122 13.434 159.72 12.0095 157.716 12.0095ZM148.297 46.8076H155.11L159.72 22.3879H152.906L148.297 46.8076ZM176.954 22.3879H172.145L172.345 21.1669C172.746 18.7249 174.149 16.69 176.353 16.69C177.555 16.69 178.557 17.097 178.557 17.097L179.96 11.6025C179.96 11.6025 178.758 10.992 176.353 10.992C173.948 10.992 171.543 11.6025 169.74 13.2305C167.335 15.2655 166.333 18.1145 165.732 20.9634L165.531 22.1844H162.325L161.323 27.4753H164.529L160.922 46.8076H167.736L171.343 27.4753H175.952L176.954 22.3879ZM193.187 22.3879C193.187 22.3879 188.978 33.1733 186.974 39.0747C186.774 37.2432 185.371 22.3879 185.371 22.3879H178.157L182.165 44.7726C182.165 45.1796 182.165 45.5866 181.964 45.9936C181.163 47.6216 179.76 49.0461 178.357 50.0636C177.155 51.081 175.551 51.6915 174.549 52.0985L176.353 58C177.756 57.7965 180.561 56.5755 182.966 54.337C185.972 51.488 188.978 46.8076 191.784 40.7027L200 22.5914L193.187 22.3879Z" fill="#3D3852"/>
<path fill-rule="evenodd" clip-rule="evenodd" d="M23.3606 2.08214C23.1248 1.94387 22.9387 1.83481 22.6453 1.83481C17.4349 1.83481 14.6293 8.75373 13.2265 12.8237L17.6353 11.6027C18.8377 5.90476 21.2425 3.2593 23.6473 2.24181C23.5399 2.18728 23.4469 2.13275 23.3606 2.08214ZM25.6513 8.75373C25.6513 6.51526 25.2505 5.09077 24.8497 3.86979C23.0461 4.68378 21.0421 6.51526 19.8397 10.7887L25.6513 9.16072V8.75373ZM27.455 8.34673L30.0602 7.53274C29.459 5.49777 28.2566 3.66629 26.8538 3.2593C27.2546 4.48028 27.455 5.90476 27.455 7.73624V8.34673ZM42.6854 10.3817C42.8858 10.3817 43.0862 10.5852 43.0862 10.7887C43.0862 11.1957 49.0983 52.7092 49.0983 52.7092L31.8638 56.5756L0 50.4707C0 50.4707 4.00802 18.3181 4.20842 17.3006L4.21914 17.2243C4.40935 15.8687 4.4379 15.6653 6.01203 15.2656C6.47266 15.1097 6.92021 14.9538 7.35804 14.8013C8.63445 14.3566 9.82837 13.9407 11.0221 13.6377C12.2245 8.95723 15.6313 -0.200162 22.8457 0.00333588C23.8477 0.00333588 25.0501 0.410331 25.8517 1.63132H26.0521C29.0582 1.63132 30.8618 4.27678 31.8638 7.12575C32.8658 6.71875 33.467 6.51525 33.467 6.51525C33.5071 6.51525 33.5632 6.50711 33.6305 6.49735C33.8999 6.45828 34.3488 6.39316 34.6694 6.71875C35.0702 6.92225 38.0762 9.97471 38.0762 9.97471C38.0762 9.97471 42.2846 10.3817 42.6854 10.3817ZM23.7956 26.4293L26 19.9174C26 19.9174 24.5972 18.8999 21.1904 19.1034C13.7755 19.1034 9.96791 24.1908 9.96791 29.4817C9.96791 33.0201 11.9223 34.6378 13.6387 36.0585C14.9825 37.1708 16.1803 38.1623 16.1803 39.8601C16.1803 40.8776 15.5791 42.0986 13.9759 42.0986C11.5711 42.0986 8.7655 39.6566 8.7655 39.6566L7.36269 44.5405C7.36269 44.5405 10.1683 48 15.5791 48C20.1884 48 23.5952 44.5405 23.5952 39.0461C23.5952 34.8316 20.7696 32.7312 18.5608 31.0893C17.1434 30.0357 15.9799 29.1708 15.9799 28.0573C15.9799 27.4468 16.1803 25.4118 19.5872 25.4118C21.992 25.4118 23.7956 26.4293 23.7956 26.4293Z" fill="#3D3852"/>
</svg>
