<svg width="200" height="46" viewBox="0 0 200 46" fill="none" xmlns="http://www.w3.org/2000/svg">
<path d="M115.996 18.1062H108.123V18.9528C110.585 18.9528 110.981 19.4878 110.981 22.6531V28.3605C110.981 31.5258 110.586 32.1059 108.123 32.1059C106.232 31.8382 104.956 30.8129 103.197 28.8508L101.174 26.6218C103.9 26.1308 105.351 24.3925 105.351 22.4305C105.351 19.9789 103.285 18.1062 99.414 18.1062H91.6736V18.9528C94.1358 18.9528 94.5321 19.4878 94.5321 22.6531V28.3605C94.5321 31.5258 94.1362 32.1059 91.6736 32.1059V32.9528H100.426V32.1059C97.9632 32.1059 97.5673 31.5258 97.5673 28.3605V26.7563H98.3147L103.197 32.9528H115.996C122.285 32.9528 125.012 29.5649 125.012 25.5072C125.012 21.4498 122.285 18.1062 115.996 18.1062ZM97.5677 25.3728V19.4439H99.3706C101.35 19.4439 102.23 20.8259 102.23 22.4309C102.23 23.9915 101.35 25.3731 99.3706 25.3731L97.5677 25.3728ZM116.128 31.5705H115.82C114.237 31.5705 114.017 31.1699 114.017 29.1189V19.4439H116.128C120.702 19.4439 121.537 22.8318 121.537 25.4625C121.537 28.1818 120.702 31.5705 116.128 31.5705ZM67.1766 27.0232L70.2114 17.9271C71.0914 15.2968 70.6955 14.5395 67.8807 14.5395V13.6475H76.1492V14.5395C73.3784 14.5395 72.7188 15.2078 71.6192 18.4625L66.6048 33.7105H66.0333L61.547 19.7555L56.9729 33.7105H56.4011L51.5192 18.4629C50.4633 15.2082 49.76 14.5399 47.2085 14.5399V13.6479H56.9726V14.5399C54.3774 14.5399 53.6733 15.1639 54.5974 17.9275L57.544 27.0236L61.9862 13.6479H62.8222L67.1766 27.0232ZM82.1299 33.5318C77.2921 33.5318 73.3336 29.9208 73.3336 25.5064C73.3336 21.1371 77.2925 17.5258 82.1299 17.5258C86.968 17.5258 90.9262 21.1371 90.9262 25.5064C90.9262 29.9208 86.968 33.5318 82.1299 33.5318ZM82.1299 18.9089C78.084 18.9089 76.6762 22.6084 76.6762 25.5068C76.6762 28.4499 78.084 32.1055 82.1299 32.1055C86.2206 32.1055 87.6284 28.4499 87.6284 25.5068C87.6281 22.6084 86.2206 18.9089 82.1299 18.9089Z" fill="#3D3852"/>
<path d="M135.876 32.0607V32.9523H125.804V32.0607C128.751 32.0607 129.279 31.3027 129.279 26.8436V19.7111C129.279 15.252 128.751 14.5394 125.804 14.5394V13.647H134.908C139.438 13.647 141.946 16.01 141.946 19.1761C141.946 22.2524 139.438 24.6597 134.908 24.6597H132.401V26.8436C132.401 31.3031 132.929 32.0607 135.876 32.0607ZM134.908 15.252H132.401V23.01H134.908C137.371 23.01 138.514 21.2714 138.514 19.1761C138.514 17.0361 137.371 15.252 134.908 15.252ZM172.161 28.7617L171.94 29.564C171.545 31.0354 171.06 31.5704 167.938 31.5704H167.322C165.035 31.5704 164.639 31.0354 164.639 27.8704V25.8198C168.07 25.8198 168.334 26.1314 168.334 28.4501H169.17V21.8064H168.334C168.334 24.1247 168.07 24.4367 164.639 24.4367V19.4438H167.058C170.181 19.4438 170.664 19.9788 171.06 21.4501L171.281 22.2971H171.984L171.677 18.1065H158.745V18.9531C161.208 18.9531 161.604 19.4881 161.604 22.6534V28.3604C161.604 31.2561 161.268 31.9856 159.327 32.09C157.481 31.8039 156.214 30.7838 154.48 28.8507L152.457 26.6217C155.184 26.1307 156.635 24.3924 156.635 22.4304C156.635 19.9788 154.568 18.1061 150.698 18.1061H142.957V18.9527C145.42 18.9527 145.816 19.4877 145.816 22.653V28.3604C145.816 31.5257 145.421 32.1057 142.957 32.1057V32.9527H151.71V32.1057C149.248 32.1057 148.851 31.5257 148.851 28.3604V26.7561H149.599L154.481 32.9527H172.557L172.821 28.7625L172.161 28.7617ZM148.85 25.3727V19.4438H150.653C152.633 19.4438 153.513 20.8257 153.513 22.4307C153.513 23.9914 152.633 25.373 150.653 25.373L148.85 25.3727ZM181.088 33.5316C179.329 33.5316 177.79 32.5957 177.13 32.0156C176.91 32.239 176.514 32.9077 176.427 33.5316H175.591V27.3794H176.47C176.823 30.322 178.845 32.0607 181.44 32.0607C182.848 32.0607 183.991 31.258 183.991 29.9211C183.991 28.7621 182.98 27.8701 181.177 27.0231L178.669 25.8194C176.91 24.9717 175.591 23.5 175.591 21.5391C175.591 19.3991 177.57 17.5715 180.297 17.5715C181.748 17.5715 182.98 18.1068 183.728 18.7308C183.947 18.5521 184.168 18.0618 184.3 17.5264H185.135V22.7878H184.211C183.903 20.6921 182.76 18.9534 180.429 18.9534C179.198 18.9534 178.054 19.6664 178.054 20.7818C178.054 21.9408 178.977 22.5648 181.089 23.5454L183.507 24.7491C185.619 25.7744 186.454 27.4248 186.454 28.7621C186.454 31.5704 184.035 33.5316 181.088 33.5316ZM194.635 33.5316C192.875 33.5316 191.335 32.5957 190.676 32.0156C190.456 32.239 190.061 32.9077 189.973 33.5316H189.137V27.3794H190.017C190.369 30.322 192.391 32.0607 194.987 32.0607C196.394 32.0607 197.538 31.258 197.538 29.9211C197.538 28.7621 196.527 27.8701 194.723 27.0231L192.215 25.8194C190.456 24.9717 189.137 23.5 189.137 21.5391C189.137 19.3991 191.116 17.5715 193.843 17.5715C195.295 17.5715 196.525 18.1068 197.274 18.7308C197.494 18.5521 197.714 18.0618 197.845 17.5264H198.681V22.7878H197.758C197.45 20.6921 196.306 18.9534 193.975 18.9534C192.744 18.9534 191.6 19.6664 191.6 20.7818C191.6 21.9408 192.524 22.5648 194.635 23.5454L197.054 24.7491C199.165 25.7744 200 27.4248 200 28.7621C200 31.5704 197.581 33.5316 194.635 33.5316Z" fill="#3D3852"/>
<path d="M3.22559 22.999C3.22559 30.8092 7.70299 37.5581 14.1956 40.7568L4.91114 14.9692C3.79799 17.4957 3.22361 20.232 3.22559 22.999ZM35.83 22.0034C35.83 19.5649 34.9659 17.8762 34.2248 16.5618C33.2381 14.9365 32.3133 13.5602 32.3133 11.9349C32.3133 10.1212 33.6703 8.43284 35.5818 8.43284C35.6681 8.43284 35.75 8.44373 35.834 8.44861C32.3711 5.23299 27.7574 3.26908 22.6904 3.26908C15.8904 3.26908 9.90743 6.8057 6.42744 12.1624C6.88373 12.1763 7.31447 12.1857 7.68003 12.1857C9.71595 12.1857 12.8674 11.9353 12.8674 11.9353C13.9167 11.8726 14.0404 13.4348 12.9922 13.5606C12.9922 13.5606 11.9378 13.6863 10.7645 13.7486L17.8522 35.1208L22.1119 22.1708L19.0793 13.7483C18.0311 13.6859 17.0378 13.5602 17.0378 13.5602C15.9889 13.4979 16.1119 11.8722 17.1608 11.9349C17.1608 11.9349 20.3756 12.1853 22.2881 12.1853C24.3233 12.1853 27.4755 11.9349 27.4755 11.9349C28.5255 11.8722 28.6489 13.4344 27.6004 13.5602C27.6004 13.5602 26.5433 13.6859 25.3722 13.7483L32.4063 34.9582L34.3478 28.3817C35.1896 25.6526 35.83 23.6925 35.83 22.0034Z" fill="#3D3852"/>
<path d="M23.0308 24.7252L17.1904 41.9269C18.976 42.4603 20.8278 42.7311 22.6893 42.7311C24.8907 42.7317 27.0761 42.3535 29.1526 41.6127C29.0986 41.5264 29.0523 41.4354 29.0141 41.3409L23.0308 24.7252ZM39.7685 13.533C39.8526 14.1615 39.8996 14.8365 39.8996 15.5619C39.8996 17.5641 39.5308 19.8148 38.4196 22.6291L32.4741 40.0542C38.2608 36.6336 42.153 30.2786 42.153 22.9993C42.1582 19.6906 41.3379 16.4342 39.7685 13.533Z" fill="#3D3852"/>
<path d="M22.6896 0C10.1789 0 0 10.3174 0 22.9992C0 35.6826 10.1789 46 22.69 46C35.1999 46 45.3807 35.683 45.3807 22.9992C45.3799 10.3174 35.1999 0 22.6896 0ZM22.6896 44.9454C10.7526 44.9454 1.04037 35.1003 1.04037 22.9992C1.04037 10.8993 10.7522 1.05498 22.6896 1.05498C34.6262 1.05498 44.3373 10.8993 44.3373 22.9992C44.3377 35.1003 34.6262 44.9454 22.6896 44.9454Z" fill="#3D3852"/>
</svg>
