<svg width="200" height="90" viewBox="0 0 200 90" fill="none" xmlns="http://www.w3.org/2000/svg">
<path d="M120.014 39.0779H115.029C114.927 38.6765 114.85 38.211 114.799 37.6826C114.698 36.654 114.698 35.6183 114.799 34.5897C114.85 34.0624 114.927 33.5973 115.029 33.1936H127.453V71.8949C126.831 72.0013 126.204 72.0765 125.574 72.12C124.949 72.1672 124.322 72.1921 123.694 72.1948C123.093 72.191 122.493 72.1661 121.893 72.12C121.264 72.0761 120.637 72.0006 120.015 71.8938V39.0763V39.0771L120.014 39.0779ZM163.265 48.8106C163.265 47.4019 163.073 46.0569 162.691 44.7733C162.307 43.4917 161.743 42.373 161.004 41.4168C160.261 40.4622 159.316 39.6945 158.165 39.1165C157.015 38.538 155.647 38.2484 154.062 38.2484C150.944 38.2484 148.554 39.1802 146.892 41.0403C145.231 42.9007 144.222 45.4907 143.863 48.8106H163.266H163.265ZM143.787 54.3927C143.889 58.6173 145.001 61.7109 147.123 63.6713C149.244 65.6325 152.376 66.6146 156.517 66.6146C160.146 66.6146 163.597 65.985 166.869 64.7278C167.277 65.4822 167.609 66.4002 167.865 67.4815C168.116 68.5343 168.27 69.6073 168.325 70.6873C166.639 71.3932 164.784 71.9189 162.766 72.2719C160.745 72.6229 158.509 72.8 156.056 72.8C152.476 72.8 149.408 72.3081 146.854 71.3283C144.297 70.3465 142.188 68.9634 140.526 67.1789C138.865 65.394 137.65 63.2813 136.883 60.8417C136.117 58.4032 135.733 55.7247 135.733 52.8077C135.733 49.9411 136.103 47.2626 136.845 44.7726C137.585 42.2845 138.725 40.1215 140.257 38.2858C141.791 36.4494 143.721 34.9915 146.047 33.9102C148.372 32.8288 151.12 32.2874 154.291 32.2874C157 32.2874 159.378 32.7407 161.423 33.6457C163.467 34.5508 165.181 35.7958 166.561 37.38C167.941 38.9646 168.989 40.8506 169.705 43.0373C170.421 45.2259 170.78 47.6018 170.78 50.1674C170.78 50.8717 170.753 51.6131 170.702 52.3922C170.66 53.0591 170.609 53.7255 170.549 54.3911H143.785L143.786 54.3923L143.787 54.3927ZM179.143 33.1936C179.677 33.0983 180.214 33.0229 180.753 32.9677C181.263 32.9185 181.801 32.893 182.364 32.893C182.926 32.893 183.488 32.9185 184.051 32.9677C184.613 33.0189 185.125 33.0944 185.585 33.1936C185.737 33.9483 185.891 34.9427 186.043 36.1735C186.197 37.406 186.275 38.4487 186.275 39.3042C187.348 37.5948 188.767 36.1102 190.53 34.8526C192.294 33.5961 194.556 32.9666 197.316 32.9666C197.725 32.9666 198.147 32.9799 198.582 33.0051C198.954 33.0248 199.326 33.0618 199.694 33.1173C199.795 33.5706 199.874 34.0491 199.924 34.5512C199.974 35.0536 200 35.5821 200 36.135C200 36.739 199.962 37.3682 199.886 38.0206C199.812 38.6512 199.722 39.2799 199.618 39.9062C199.203 39.8059 198.778 39.7553 198.352 39.7555H197.316C195.936 39.7555 194.619 39.9444 193.366 40.321C192.113 40.6987 190.989 41.3653 189.992 42.3199C188.996 43.2761 188.203 44.5841 187.616 46.2438C187.027 47.9036 186.733 50.041 186.733 52.6558V71.8938C186.111 72 185.484 72.0759 184.854 72.1196C184.165 72.17 183.538 72.1944 182.976 72.1944C182.349 72.1919 181.722 72.167 181.097 72.1196C180.442 72.0728 179.789 71.9975 179.141 71.8941V33.194L179.143 33.1936ZM125.321 12.5289C125.321 13.4318 125.155 14.3274 124.832 15.1724C123.973 15.4906 123.062 15.6538 122.144 15.654H122.133C121.214 15.6541 120.304 15.4911 119.445 15.1727C119.12 14.3276 118.954 13.4317 118.955 12.5285V12.5167C118.955 11.586 119.128 10.6948 119.443 9.87238C120.302 9.5536 121.213 9.39056 122.131 9.39113H122.142C123.088 9.39113 123.994 9.56191 124.83 9.87238C125.154 10.7175 125.319 11.6134 125.319 12.5167V12.5285H125.32L125.321 12.5289ZM134.691 10.4355H127.261L132.515 5.26692C131.689 4.12558 130.674 3.1281 129.514 2.31571L124.259 7.48426V0.174318C123.561 0.0587038 122.853 0.000397267 122.145 0H122.131C121.411 0 120.705 0.0605981 120.017 0.174318V7.48426L114.761 2.31532C114.182 2.72057 113.639 3.17283 113.137 3.66737L113.135 3.66973C112.633 4.16389 112.173 4.69826 111.761 5.26731L117.017 10.4355H109.585C109.585 10.4355 109.408 11.8088 109.408 12.5186V12.5273C109.408 13.2371 109.469 13.9328 109.585 14.61H117.017L111.761 19.7778C112.588 20.919 113.602 21.9167 114.762 22.7298L120.017 17.5616V24.872C120.704 24.9853 121.409 25.0451 122.129 25.0459H122.147C122.855 25.0453 123.561 24.9871 124.259 24.872V17.5616L129.514 22.731C130.093 22.3254 130.637 21.8731 131.139 21.3789H131.141C131.642 20.8842 132.102 20.3495 132.513 19.7802L127.26 14.6104H134.692C134.807 13.9336 134.868 13.2403 134.868 12.532V12.5139C134.868 11.8174 134.809 11.1229 134.692 10.4363V10.4355H134.691ZM0 70.8392L20.7058 39.1535H2.45362C2.30082 38.2484 2.22442 37.2434 2.22442 36.1365C2.22442 35.0808 2.30202 34.099 2.45522 33.1932H31.9795L32.3635 34.1758L11.5045 65.9355H31.059C31.2122 66.9416 31.2894 67.9718 31.2894 69.0275C31.2894 70.0349 31.2127 70.9899 31.0594 71.8949H0.384003L0 70.838V70.8392ZM59.7389 53.7131C58.9721 53.6136 58.0005 53.514 56.8249 53.4121C55.6488 53.3126 54.652 53.2614 53.8352 53.2614C50.6648 53.2614 48.2492 53.8398 46.5888 54.9967C44.926 56.1544 44.0968 57.9137 44.0968 60.2774C44.0968 61.7861 44.3768 62.9681 44.9396 63.8228C45.5012 64.679 46.2048 65.3315 47.0484 65.7844C47.8924 66.2369 48.8244 66.5139 49.8464 66.6146C50.8684 66.715 51.8404 66.765 52.7604 66.765C53.9364 66.765 55.1504 66.702 56.4033 66.5761C57.6553 66.4513 58.7673 66.2621 59.7393 66.0106V53.7131H59.7389ZM59.7389 46.3965C59.7389 43.428 58.9721 41.3661 57.4389 40.2092C55.9044 39.0523 53.6808 38.4739 50.7668 38.4739C48.976 38.4739 47.3028 38.6132 45.744 38.8894C44.2014 39.1618 42.6772 39.5267 41.1799 39.9822C40.2079 38.3224 39.7239 36.3372 39.7239 34.0223C41.4599 33.4698 43.3767 33.0425 45.474 32.7407C47.57 32.4385 49.5892 32.2874 51.5328 32.2874C56.6448 32.2874 60.5301 33.4324 63.1889 35.7206C65.8465 38.0108 67.1769 41.6691 67.1769 46.6975V70.914C65.3865 71.3161 63.2145 71.7309 60.6585 72.1586C58.074 72.5879 55.4575 72.8024 52.8364 72.8C50.3316 72.8 48.0684 72.5745 46.05 72.1216C44.03 71.6679 42.3171 70.9403 40.9115 69.933C39.5043 68.928 38.4195 67.6452 37.6515 66.0866C36.8851 64.5271 36.5015 62.6415 36.5015 60.4281C36.5015 58.2663 36.9487 56.3673 37.8435 54.7319C38.7227 53.1161 39.9696 51.7221 41.4867 50.6584C43.0203 49.5787 44.784 48.7728 46.778 48.2455C48.7724 47.7171 50.8676 47.4526 53.066 47.4526C54.702 47.4526 56.044 47.4912 57.0925 47.5668C58.1397 47.6415 59.0221 47.7297 59.7381 47.8304V46.3969L59.7389 46.3965ZM83.0511 65.5565C84.0192 65.9083 85.0215 66.1612 86.0423 66.3112C87.0647 66.4627 88.3927 66.5379 90.0303 66.5379C91.8703 66.5379 93.5567 66.2495 95.0904 65.671C96.6248 65.0938 97.9408 64.2002 99.04 62.9925C100.139 61.7861 101.008 60.2656 101.647 58.428C102.286 56.5935 102.606 54.4191 102.606 51.9031C102.606 47.88 101.851 44.6864 100.344 42.3223C98.8348 39.9589 96.368 38.7769 92.9439 38.7769C91.6659 38.7769 90.4379 39.0028 89.2639 39.4561C88.0863 39.9086 87.0391 40.5877 86.1187 41.4928C85.1987 42.3978 84.4575 43.5429 83.8955 44.9256C83.3315 46.3099 83.0515 47.9555 83.0515 49.8671V65.5577V65.5569L83.0511 65.5565ZM75.459 33.1928C75.979 33.0921 76.503 33.0169 77.031 32.9669C77.5793 32.917 78.1296 32.8921 78.6802 32.8922C79.1898 32.8922 79.7262 32.9182 80.2898 32.9669C80.8514 33.0181 81.3882 33.094 81.9003 33.1932C81.9507 33.2955 82.0155 33.6083 82.0923 34.1368C82.1683 34.6653 82.2451 35.2307 82.3223 35.8336C82.3991 36.4376 82.4755 37.0172 82.5523 37.5689C82.6291 38.1229 82.6675 38.4751 82.6675 38.6258C83.1775 37.8219 83.7915 37.0416 84.5075 36.2873C85.2235 35.5325 86.0807 34.8537 87.0775 34.2509C88.0743 33.6469 89.1983 33.1696 90.4515 32.817C91.7035 32.4652 93.0967 32.2878 94.6308 32.2878C96.9308 32.2878 99.0656 32.6655 101.035 33.4202C103.002 34.1758 104.688 35.3433 106.095 36.9279C107.5 38.5125 108.599 40.5244 109.392 42.9629C110.184 45.4041 110.58 48.2829 110.58 51.6017C110.58 58.2399 108.752 63.434 105.096 67.1801C101.44 70.9273 96.2652 72.8 89.5679 72.8C88.4427 72.8 87.2931 72.7244 86.1171 72.5737C84.9403 72.4222 83.9187 72.2207 83.0491 71.9705V89.699C82.4013 89.8027 81.7492 89.8782 81.0947 89.9252C80.4038 89.9744 79.777 90 79.2146 90C78.5878 89.9973 77.9612 89.9724 77.3362 89.9252C76.7066 89.8813 76.0796 89.8058 75.4578 89.699V33.1932L75.459 33.1928Z" fill="#3D3852"/>
</svg>
